G04 #@! TF.FileFunction,Copper,L2,Bot,Signal*
%FSLAX46Y46*%
G04 Gerber Fmt 4.6, Leading zero omitted, Abs format (unit mm)*
G04 Created by KiCad (PCBNEW 4.0.1-stable) date 12/09/17 22:14:15*
%MOMM*%
G01*
G04 APERTURE LIST*
%ADD10C,0.050000*%
%ADD11R,1.049020X1.079500*%
%ADD12O,1.524000X3.048000*%
%ADD13R,1.500000X0.600000*%
%ADD14C,0.800000*%
%ADD15C,0.300000*%
%ADD16C,0.254000*%
G04 APERTURE END LIST*
D10*
D11*
X143373760Y-109000000D03*
X141626240Y-109000000D03*
D12*
X138430000Y-111760000D03*
X140970000Y-111760000D03*
X143510000Y-111760000D03*
X146050000Y-111760000D03*
X146050000Y-99060000D03*
X143510000Y-99060000D03*
X140970000Y-99060000D03*
X138430000Y-99060000D03*
D13*
X139490000Y-106045000D03*
X144990000Y-106045000D03*
X139490000Y-107315000D03*
X139490000Y-104775000D03*
X139490000Y-103505000D03*
X144990000Y-107315000D03*
X144990000Y-104775000D03*
X144990000Y-103505000D03*
D14*
X138000000Y-102000000D03*
X146000000Y-102000000D03*
X143000000Y-102000000D03*
X141883300Y-105165900D03*
X139451600Y-108222600D03*
D15*
X143889700Y-107594000D02*
X143373800Y-108109900D01*
X143889700Y-107315000D02*
X143889700Y-107594000D01*
X144990000Y-107315000D02*
X143889700Y-107315000D01*
X143373800Y-109000000D02*
X143373800Y-108109900D01*
X143270100Y-106695400D02*
X143889700Y-107315000D01*
X143270100Y-105443700D02*
X143270100Y-106695400D01*
X138760700Y-100934300D02*
X143270100Y-105443700D01*
X138430000Y-100934300D02*
X138760700Y-100934300D01*
X138430000Y-99060000D02*
X138430000Y-100934300D01*
X139490000Y-103505000D02*
X139490000Y-103490000D01*
X139490000Y-103490000D02*
X138000000Y-102000000D01*
X139490000Y-103505000D02*
X140590300Y-103505000D01*
X141626200Y-109000000D02*
X141626200Y-108109900D01*
X141626200Y-108109900D02*
X141626200Y-105165900D01*
X141626200Y-105103400D02*
X141626200Y-105165900D01*
X140590400Y-104067600D02*
X141626200Y-105103400D01*
X140590300Y-104067600D02*
X140590400Y-104067600D01*
X140590300Y-103505000D02*
X140590300Y-104067600D01*
X141626200Y-105165900D02*
X141883300Y-105165900D01*
X139451600Y-107353400D02*
X139451600Y-108222600D01*
X139490000Y-107315000D02*
X139451600Y-107353400D01*
X138389700Y-109845400D02*
X138430000Y-109885700D01*
X138389700Y-106045000D02*
X138389700Y-109845400D01*
X139490000Y-106045000D02*
X138389700Y-106045000D01*
X138430000Y-111760000D02*
X138430000Y-109885700D01*
X140590300Y-111380300D02*
X140970000Y-111760000D01*
X140590300Y-104775000D02*
X140590300Y-111380300D01*
X139490000Y-104775000D02*
X140590300Y-104775000D01*
X144990000Y-103505000D02*
X146090300Y-103505000D01*
X146050000Y-111760000D02*
X146050000Y-109885700D01*
X146590600Y-104005300D02*
X146090300Y-103505000D01*
X146590600Y-109345100D02*
X146590600Y-104005300D01*
X146050000Y-109885700D02*
X146590600Y-109345100D01*
X146090300Y-108328300D02*
X146090300Y-104775000D01*
X143510000Y-110908600D02*
X146090300Y-108328300D01*
X143510000Y-111760000D02*
X143510000Y-110908600D01*
X144990000Y-104775000D02*
X146090300Y-104775000D01*
X143889700Y-101314000D02*
X143510000Y-100934300D01*
X143889700Y-106045000D02*
X143889700Y-101314000D01*
X144990000Y-106045000D02*
X143889700Y-106045000D01*
X143510000Y-99060000D02*
X143510000Y-100934300D01*
D16*
G36*
X142485100Y-105768858D02*
X142485100Y-106695400D01*
X142544855Y-106995807D01*
X142715021Y-107250479D01*
X142919042Y-107454500D01*
X142818721Y-107554821D01*
X142648555Y-107809493D01*
X142648555Y-107809494D01*
X142640066Y-107852171D01*
X142613933Y-107857088D01*
X142511516Y-107922991D01*
X142510448Y-107921923D01*
X142277059Y-107825250D01*
X141911990Y-107825250D01*
X141753240Y-107984000D01*
X141753240Y-108873000D01*
X141773240Y-108873000D01*
X141773240Y-109127000D01*
X141753240Y-109127000D01*
X141753240Y-109147000D01*
X141499240Y-109147000D01*
X141499240Y-109127000D01*
X141479240Y-109127000D01*
X141479240Y-108873000D01*
X141499240Y-108873000D01*
X141499240Y-107984000D01*
X141375300Y-107860060D01*
X141375300Y-104775000D01*
X141346511Y-104630269D01*
X142485100Y-105768858D01*
X142485100Y-105768858D01*
G37*
X142485100Y-105768858D02*
X142485100Y-106695400D01*
X142544855Y-106995807D01*
X142715021Y-107250479D01*
X142919042Y-107454500D01*
X142818721Y-107554821D01*
X142648555Y-107809493D01*
X142648555Y-107809494D01*
X142640066Y-107852171D01*
X142613933Y-107857088D01*
X142511516Y-107922991D01*
X142510448Y-107921923D01*
X142277059Y-107825250D01*
X141911990Y-107825250D01*
X141753240Y-107984000D01*
X141753240Y-108873000D01*
X141773240Y-108873000D01*
X141773240Y-109127000D01*
X141753240Y-109127000D01*
X141753240Y-109147000D01*
X141499240Y-109147000D01*
X141499240Y-109127000D01*
X141479240Y-109127000D01*
X141479240Y-108873000D01*
X141499240Y-108873000D01*
X141499240Y-107984000D01*
X141375300Y-107860060D01*
X141375300Y-104775000D01*
X141346511Y-104630269D01*
X142485100Y-105768858D01*
G36*
X137874921Y-101489379D02*
X138129594Y-101659545D01*
X138430000Y-101719300D01*
X138435542Y-101719300D01*
X139362998Y-102646756D01*
X139362998Y-102728748D01*
X139204250Y-102570000D01*
X138613690Y-102570000D01*
X138380301Y-102666673D01*
X138201673Y-102845302D01*
X138105000Y-103078691D01*
X138105000Y-103219250D01*
X138263750Y-103378000D01*
X139363000Y-103378000D01*
X139363000Y-103358000D01*
X139617000Y-103358000D01*
X139617000Y-103378000D01*
X139637000Y-103378000D01*
X139637000Y-103632000D01*
X139617000Y-103632000D01*
X139617000Y-103652000D01*
X139363000Y-103652000D01*
X139363000Y-103632000D01*
X138263750Y-103632000D01*
X138105000Y-103790750D01*
X138105000Y-103931309D01*
X138194807Y-104148121D01*
X138143569Y-104223110D01*
X138092560Y-104475000D01*
X138092560Y-105075000D01*
X138136835Y-105310299D01*
X138089294Y-105319755D01*
X137870000Y-105466282D01*
X137870000Y-101482014D01*
X137874921Y-101489379D01*
X137874921Y-101489379D01*
G37*
X137874921Y-101489379D02*
X138129594Y-101659545D01*
X138430000Y-101719300D01*
X138435542Y-101719300D01*
X139362998Y-102646756D01*
X139362998Y-102728748D01*
X139204250Y-102570000D01*
X138613690Y-102570000D01*
X138380301Y-102666673D01*
X138201673Y-102845302D01*
X138105000Y-103078691D01*
X138105000Y-103219250D01*
X138263750Y-103378000D01*
X139363000Y-103378000D01*
X139363000Y-103358000D01*
X139617000Y-103358000D01*
X139617000Y-103378000D01*
X139637000Y-103378000D01*
X139637000Y-103632000D01*
X139617000Y-103632000D01*
X139617000Y-103652000D01*
X139363000Y-103652000D01*
X139363000Y-103632000D01*
X138263750Y-103632000D01*
X138105000Y-103790750D01*
X138105000Y-103931309D01*
X138194807Y-104148121D01*
X138143569Y-104223110D01*
X138092560Y-104475000D01*
X138092560Y-105075000D01*
X138136835Y-105310299D01*
X138089294Y-105319755D01*
X137870000Y-105466282D01*
X137870000Y-101482014D01*
X137874921Y-101489379D01*
G36*
X146177000Y-98933000D02*
X146197000Y-98933000D01*
X146197000Y-99187000D01*
X146177000Y-99187000D01*
X146177000Y-101053720D01*
X146393070Y-101176220D01*
X146467277Y-101161260D01*
X146610000Y-101083588D01*
X146610000Y-102926282D01*
X146390707Y-102779755D01*
X146181535Y-102738148D01*
X145991890Y-102608569D01*
X145740000Y-102557560D01*
X144674700Y-102557560D01*
X144674700Y-101314000D01*
X144614945Y-101013594D01*
X144502442Y-100845220D01*
X144790349Y-100414338D01*
X144807941Y-100473941D01*
X145151974Y-100899630D01*
X145632723Y-101161260D01*
X145706930Y-101176220D01*
X145923000Y-101053720D01*
X145923000Y-99187000D01*
X145903000Y-99187000D01*
X145903000Y-98933000D01*
X145923000Y-98933000D01*
X145923000Y-98913000D01*
X146177000Y-98913000D01*
X146177000Y-98933000D01*
X146177000Y-98933000D01*
G37*
X146177000Y-98933000D02*
X146197000Y-98933000D01*
X146197000Y-99187000D01*
X146177000Y-99187000D01*
X146177000Y-101053720D01*
X146393070Y-101176220D01*
X146467277Y-101161260D01*
X146610000Y-101083588D01*
X146610000Y-102926282D01*
X146390707Y-102779755D01*
X146181535Y-102738148D01*
X145991890Y-102608569D01*
X145740000Y-102557560D01*
X144674700Y-102557560D01*
X144674700Y-101314000D01*
X144614945Y-101013594D01*
X144502442Y-100845220D01*
X144790349Y-100414338D01*
X144807941Y-100473941D01*
X145151974Y-100899630D01*
X145632723Y-101161260D01*
X145706930Y-101176220D01*
X145923000Y-101053720D01*
X145923000Y-99187000D01*
X145903000Y-99187000D01*
X145903000Y-98933000D01*
X145923000Y-98933000D01*
X145923000Y-98913000D01*
X146177000Y-98913000D01*
X146177000Y-98933000D01*
M02*
