G04 #@! TF.FileFunction,Copper,L1,Top,Signal*
%FSLAX46Y46*%
G04 Gerber Fmt 4.6, Leading zero omitted, Abs format (unit mm)*
G04 Created by KiCad (PCBNEW 4.0.1-stable) date 12/09/17 22:14:15*
%MOMM*%
G01*
G04 APERTURE LIST*
%ADD10C,0.050000*%
%ADD11O,1.524000X3.048000*%
%ADD12C,0.800000*%
%ADD13C,0.300000*%
%ADD14C,0.254000*%
G04 APERTURE END LIST*
D10*
D11*
X138430000Y-111760000D03*
X140970000Y-111760000D03*
X143510000Y-111760000D03*
X146050000Y-111760000D03*
X146050000Y-99060000D03*
X143510000Y-99060000D03*
X140970000Y-99060000D03*
X138430000Y-99060000D03*
D12*
X138000000Y-102000000D03*
X146000000Y-102000000D03*
X143000000Y-102000000D03*
X141883300Y-105165900D03*
X139451600Y-108222600D03*
D13*
X143000000Y-102000000D02*
X146000000Y-102000000D01*
X146050000Y-101950000D02*
X146050000Y-99060000D01*
X146050000Y-101950000D02*
X146000000Y-102000000D01*
X146050000Y-99060000D02*
X146050000Y-100934300D01*
X141883300Y-105101000D02*
X141883300Y-105165900D01*
X146050000Y-100934300D02*
X141883300Y-105101000D01*
X140970000Y-106704200D02*
X139451600Y-108222600D01*
X140970000Y-99060000D02*
X140970000Y-106704200D01*
D14*
G36*
X146177000Y-98933000D02*
X146197000Y-98933000D01*
X146197000Y-99187000D01*
X146177000Y-99187000D01*
X146177000Y-101053720D01*
X146393070Y-101176220D01*
X146467277Y-101161260D01*
X146610000Y-101083588D01*
X146610000Y-109682009D01*
X146584609Y-109665043D01*
X146050000Y-109558703D01*
X145515391Y-109665043D01*
X145062172Y-109967875D01*
X144780000Y-110390174D01*
X144497828Y-109967875D01*
X144044609Y-109665043D01*
X143510000Y-109558703D01*
X142975391Y-109665043D01*
X142522172Y-109967875D01*
X142240000Y-110390174D01*
X141957828Y-109967875D01*
X141504609Y-109665043D01*
X140970000Y-109558703D01*
X140435391Y-109665043D01*
X139982172Y-109967875D01*
X139700000Y-110390174D01*
X139417828Y-109967875D01*
X138964609Y-109665043D01*
X138430000Y-109558703D01*
X137895391Y-109665043D01*
X137870000Y-109682009D01*
X137870000Y-101137991D01*
X137895391Y-101154957D01*
X138430000Y-101261297D01*
X138964609Y-101154957D01*
X139417828Y-100852125D01*
X139700000Y-100429826D01*
X139982172Y-100852125D01*
X140185000Y-100987651D01*
X140185000Y-106379042D01*
X139376508Y-107187534D01*
X139246629Y-107187421D01*
X138866085Y-107344658D01*
X138574681Y-107635554D01*
X138416780Y-108015823D01*
X138416421Y-108427571D01*
X138573658Y-108808115D01*
X138864554Y-109099519D01*
X139244823Y-109257420D01*
X139656571Y-109257779D01*
X140037115Y-109100542D01*
X140328519Y-108809646D01*
X140486420Y-108429377D01*
X140486535Y-108297823D01*
X141525079Y-107259279D01*
X141695245Y-107004606D01*
X141755000Y-106704200D01*
X141755000Y-100987651D01*
X141957828Y-100852125D01*
X142240000Y-100429826D01*
X142522172Y-100852125D01*
X142975391Y-101154957D01*
X143510000Y-101261297D01*
X144044609Y-101154957D01*
X144497828Y-100852125D01*
X144790349Y-100414338D01*
X144807941Y-100473941D01*
X145151974Y-100899630D01*
X145632723Y-101161260D01*
X145706930Y-101176220D01*
X145923000Y-101053720D01*
X145923000Y-99187000D01*
X145903000Y-99187000D01*
X145903000Y-98933000D01*
X145923000Y-98933000D01*
X145923000Y-98913000D01*
X146177000Y-98913000D01*
X146177000Y-98933000D01*
X146177000Y-98933000D01*
G37*
X146177000Y-98933000D02*
X146197000Y-98933000D01*
X146197000Y-99187000D01*
X146177000Y-99187000D01*
X146177000Y-101053720D01*
X146393070Y-101176220D01*
X146467277Y-101161260D01*
X146610000Y-101083588D01*
X146610000Y-109682009D01*
X146584609Y-109665043D01*
X146050000Y-109558703D01*
X145515391Y-109665043D01*
X145062172Y-109967875D01*
X144780000Y-110390174D01*
X144497828Y-109967875D01*
X144044609Y-109665043D01*
X143510000Y-109558703D01*
X142975391Y-109665043D01*
X142522172Y-109967875D01*
X142240000Y-110390174D01*
X141957828Y-109967875D01*
X141504609Y-109665043D01*
X140970000Y-109558703D01*
X140435391Y-109665043D01*
X139982172Y-109967875D01*
X139700000Y-110390174D01*
X139417828Y-109967875D01*
X138964609Y-109665043D01*
X138430000Y-109558703D01*
X137895391Y-109665043D01*
X137870000Y-109682009D01*
X137870000Y-101137991D01*
X137895391Y-101154957D01*
X138430000Y-101261297D01*
X138964609Y-101154957D01*
X139417828Y-100852125D01*
X139700000Y-100429826D01*
X139982172Y-100852125D01*
X140185000Y-100987651D01*
X140185000Y-106379042D01*
X139376508Y-107187534D01*
X139246629Y-107187421D01*
X138866085Y-107344658D01*
X138574681Y-107635554D01*
X138416780Y-108015823D01*
X138416421Y-108427571D01*
X138573658Y-108808115D01*
X138864554Y-109099519D01*
X139244823Y-109257420D01*
X139656571Y-109257779D01*
X140037115Y-109100542D01*
X140328519Y-108809646D01*
X140486420Y-108429377D01*
X140486535Y-108297823D01*
X141525079Y-107259279D01*
X141695245Y-107004606D01*
X141755000Y-106704200D01*
X141755000Y-100987651D01*
X141957828Y-100852125D01*
X142240000Y-100429826D01*
X142522172Y-100852125D01*
X142975391Y-101154957D01*
X143510000Y-101261297D01*
X144044609Y-101154957D01*
X144497828Y-100852125D01*
X144790349Y-100414338D01*
X144807941Y-100473941D01*
X145151974Y-100899630D01*
X145632723Y-101161260D01*
X145706930Y-101176220D01*
X145923000Y-101053720D01*
X145923000Y-99187000D01*
X145903000Y-99187000D01*
X145903000Y-98933000D01*
X145923000Y-98933000D01*
X145923000Y-98913000D01*
X146177000Y-98913000D01*
X146177000Y-98933000D01*
M02*
