M48
;DRILL file {KiCad 4.0.1-stable} date 2017/12/09 22:36:51
;FORMAT={-:-/ absolute / metric / decimal}
FMAT,2
METRIC,TZ
T1C0.400
T2C1.016
%
G90
G05
M71
T1
X138.5Y-101.
X138.5Y-119.5
X139.952Y-107.223
X139.952Y-125.723
X142.383Y-104.166
X142.383Y-122.666
X143.5Y-101.
X143.5Y-119.5
X146.5Y-101.
X146.5Y-119.5
X149.268Y-101.09
X149.268Y-119.59
X150.72Y-107.313
X150.72Y-125.813
X153.151Y-104.256
X153.151Y-122.756
X154.268Y-101.09
X154.268Y-119.59
X157.268Y-101.09
X157.268Y-119.59
X160.Y-101.
X160.Y-119.5
X161.452Y-107.223
X161.452Y-125.723
X163.883Y-104.166
X163.883Y-122.666
X165.Y-101.
X165.Y-119.5
X168.Y-101.
X168.Y-119.5
X170.768Y-101.09
X170.768Y-119.59
X172.22Y-107.313
X172.22Y-125.813
X174.651Y-104.256
X174.651Y-122.756
X175.768Y-101.09
X175.768Y-119.59
X178.768Y-101.09
X178.768Y-119.59
T2
X138.93Y-98.06
X138.93Y-110.76
X138.93Y-116.56
X138.93Y-129.26
X141.47Y-98.06
X141.47Y-110.76
X141.47Y-116.56
X141.47Y-129.26
X144.01Y-98.06
X144.01Y-110.76
X144.01Y-116.56
X144.01Y-129.26
X146.55Y-98.06
X146.55Y-110.76
X146.55Y-116.56
X146.55Y-129.26
X149.698Y-98.15
X149.698Y-110.85
X149.698Y-116.65
X149.698Y-129.35
X152.238Y-98.15
X152.238Y-110.85
X152.238Y-116.65
X152.238Y-129.35
X154.778Y-98.15
X154.778Y-110.85
X154.778Y-116.65
X154.778Y-129.35
X157.318Y-98.15
X157.318Y-110.85
X157.318Y-116.65
X157.318Y-129.35
X160.43Y-98.06
X160.43Y-110.76
X160.43Y-116.56
X160.43Y-129.26
X162.97Y-98.06
X162.97Y-110.76
X162.97Y-116.56
X162.97Y-129.26
X165.51Y-98.06
X165.51Y-110.76
X165.51Y-116.56
X165.51Y-129.26
X168.05Y-98.06
X168.05Y-110.76
X168.05Y-116.56
X168.05Y-129.26
X171.198Y-98.15
X171.198Y-110.85
X171.198Y-116.65
X171.198Y-129.35
X173.738Y-98.15
X173.738Y-110.85
X173.738Y-116.65
X173.738Y-129.35
X176.278Y-98.15
X176.278Y-110.85
X176.278Y-116.65
X176.278Y-129.35
X178.818Y-98.15
X178.818Y-110.85
X178.818Y-116.65
X178.818Y-129.35
T0
M30
