G04 #@! TF.FileFunction,Copper,L1,Top,Signal*
%FSLAX46Y46*%
G04 Gerber Fmt 4.6, Leading zero omitted, Abs format (unit mm)*
G04 Created by KiCad (PCBNEW 4.0.1-stable) date 2017/12/09 22:36:48*
%MOMM*%
G01*
G04 APERTURE LIST*
%ADD10C,0.050000*%
%ADD11O,1.524000X3.048000*%
%ADD12C,0.800000*%
%ADD13C,0.300000*%
%ADD14C,0.254000*%
G04 APERTURE END LIST*
D10*
D11*
X138930000Y-110760000D03*
X141470000Y-110760000D03*
X144010000Y-110760000D03*
X146550000Y-110760000D03*
X146550000Y-98060000D03*
X144010000Y-98060000D03*
X141470000Y-98060000D03*
X138930000Y-98060000D03*
X149698000Y-110850000D03*
X152238000Y-110850000D03*
X154778000Y-110850000D03*
X157318000Y-110850000D03*
X157318000Y-98150000D03*
X154778000Y-98150000D03*
X152238000Y-98150000D03*
X149698000Y-98150000D03*
X160430000Y-110760000D03*
X162970000Y-110760000D03*
X165510000Y-110760000D03*
X168050000Y-110760000D03*
X168050000Y-98060000D03*
X165510000Y-98060000D03*
X162970000Y-98060000D03*
X160430000Y-98060000D03*
X171198000Y-110850000D03*
X173738000Y-110850000D03*
X176278000Y-110850000D03*
X178818000Y-110850000D03*
X178818000Y-98150000D03*
X176278000Y-98150000D03*
X173738000Y-98150000D03*
X171198000Y-98150000D03*
X138930000Y-129260000D03*
X141470000Y-129260000D03*
X144010000Y-129260000D03*
X146550000Y-129260000D03*
X146550000Y-116560000D03*
X144010000Y-116560000D03*
X141470000Y-116560000D03*
X138930000Y-116560000D03*
X149698000Y-129350000D03*
X152238000Y-129350000D03*
X154778000Y-129350000D03*
X157318000Y-129350000D03*
X157318000Y-116650000D03*
X154778000Y-116650000D03*
X152238000Y-116650000D03*
X149698000Y-116650000D03*
X160430000Y-129260000D03*
X162970000Y-129260000D03*
X165510000Y-129260000D03*
X168050000Y-129260000D03*
X168050000Y-116560000D03*
X165510000Y-116560000D03*
X162970000Y-116560000D03*
X160430000Y-116560000D03*
X171198000Y-129350000D03*
X173738000Y-129350000D03*
X176278000Y-129350000D03*
X178818000Y-129350000D03*
X178818000Y-116650000D03*
X176278000Y-116650000D03*
X173738000Y-116650000D03*
X171198000Y-116650000D03*
D12*
X138500000Y-101000000D03*
X146500000Y-101000000D03*
X143500000Y-101000000D03*
X142383300Y-104165900D03*
X149268000Y-101090000D03*
X157268000Y-101090000D03*
X154268000Y-101090000D03*
X153151300Y-104255900D03*
X160000000Y-101000000D03*
X168000000Y-101000000D03*
X165000000Y-101000000D03*
X163883300Y-104165900D03*
X170768000Y-101090000D03*
X178768000Y-101090000D03*
X175768000Y-101090000D03*
X174651300Y-104255900D03*
X138500000Y-119500000D03*
X146500000Y-119500000D03*
X143500000Y-119500000D03*
X142383300Y-122665900D03*
X149268000Y-119590000D03*
X157268000Y-119590000D03*
X154268000Y-119590000D03*
X153151300Y-122755900D03*
X160000000Y-119500000D03*
X168000000Y-119500000D03*
X165000000Y-119500000D03*
X163883300Y-122665900D03*
X170768000Y-119590000D03*
X178768000Y-119590000D03*
X175768000Y-119590000D03*
X174651300Y-122755900D03*
X139951600Y-107222600D03*
X150719600Y-107312600D03*
X161451600Y-107222600D03*
X172219600Y-107312600D03*
X139951600Y-125722600D03*
X150719600Y-125812600D03*
X161451600Y-125722600D03*
X172219600Y-125812600D03*
D13*
X143500000Y-101000000D02*
X146500000Y-101000000D01*
X146550000Y-100950000D02*
X146550000Y-98060000D01*
X146550000Y-100950000D02*
X146500000Y-101000000D01*
X146550000Y-98060000D02*
X146550000Y-99934300D01*
X142383300Y-104101000D02*
X142383300Y-104165900D01*
X146550000Y-99934300D02*
X142383300Y-104101000D01*
X154268000Y-101090000D02*
X157268000Y-101090000D01*
X157318000Y-101040000D02*
X157318000Y-98150000D01*
X157318000Y-101040000D02*
X157268000Y-101090000D01*
X157318000Y-98150000D02*
X157318000Y-100024300D01*
X153151300Y-104191000D02*
X153151300Y-104255900D01*
X157318000Y-100024300D02*
X153151300Y-104191000D01*
X165000000Y-101000000D02*
X168000000Y-101000000D01*
X168050000Y-100950000D02*
X168050000Y-98060000D01*
X168050000Y-100950000D02*
X168000000Y-101000000D01*
X168050000Y-98060000D02*
X168050000Y-99934300D01*
X163883300Y-104101000D02*
X163883300Y-104165900D01*
X168050000Y-99934300D02*
X163883300Y-104101000D01*
X175768000Y-101090000D02*
X178768000Y-101090000D01*
X178818000Y-101040000D02*
X178818000Y-98150000D01*
X178818000Y-101040000D02*
X178768000Y-101090000D01*
X178818000Y-98150000D02*
X178818000Y-100024300D01*
X174651300Y-104191000D02*
X174651300Y-104255900D01*
X178818000Y-100024300D02*
X174651300Y-104191000D01*
X143500000Y-119500000D02*
X146500000Y-119500000D01*
X146550000Y-119450000D02*
X146550000Y-116560000D01*
X146550000Y-119450000D02*
X146500000Y-119500000D01*
X146550000Y-116560000D02*
X146550000Y-118434300D01*
X142383300Y-122601000D02*
X142383300Y-122665900D01*
X146550000Y-118434300D02*
X142383300Y-122601000D01*
X154268000Y-119590000D02*
X157268000Y-119590000D01*
X157318000Y-119540000D02*
X157318000Y-116650000D01*
X157318000Y-119540000D02*
X157268000Y-119590000D01*
X157318000Y-116650000D02*
X157318000Y-118524300D01*
X153151300Y-122691000D02*
X153151300Y-122755900D01*
X157318000Y-118524300D02*
X153151300Y-122691000D01*
X165000000Y-119500000D02*
X168000000Y-119500000D01*
X168050000Y-119450000D02*
X168050000Y-116560000D01*
X168050000Y-119450000D02*
X168000000Y-119500000D01*
X168050000Y-116560000D02*
X168050000Y-118434300D01*
X163883300Y-122601000D02*
X163883300Y-122665900D01*
X168050000Y-118434300D02*
X163883300Y-122601000D01*
X175768000Y-119590000D02*
X178768000Y-119590000D01*
X178818000Y-119540000D02*
X178818000Y-116650000D01*
X178818000Y-119540000D02*
X178768000Y-119590000D01*
X178818000Y-116650000D02*
X178818000Y-118524300D01*
X174651300Y-122691000D02*
X174651300Y-122755900D01*
X178818000Y-118524300D02*
X174651300Y-122691000D01*
X141470000Y-105704200D02*
X139951600Y-107222600D01*
X141470000Y-98060000D02*
X141470000Y-105704200D01*
X152238000Y-105794200D02*
X150719600Y-107312600D01*
X152238000Y-98150000D02*
X152238000Y-105794200D01*
X162970000Y-105704200D02*
X161451600Y-107222600D01*
X162970000Y-98060000D02*
X162970000Y-105704200D01*
X173738000Y-105794200D02*
X172219600Y-107312600D01*
X173738000Y-98150000D02*
X173738000Y-105794200D01*
X141470000Y-124204200D02*
X139951600Y-125722600D01*
X141470000Y-116560000D02*
X141470000Y-124204200D01*
X152238000Y-124294200D02*
X150719600Y-125812600D01*
X152238000Y-116650000D02*
X152238000Y-124294200D01*
X162970000Y-124204200D02*
X161451600Y-125722600D01*
X162970000Y-116560000D02*
X162970000Y-124204200D01*
X173738000Y-124294200D02*
X172219600Y-125812600D01*
X173738000Y-116650000D02*
X173738000Y-124294200D01*
D14*
G36*
X146677000Y-97933000D02*
X146697000Y-97933000D01*
X146697000Y-98187000D01*
X146677000Y-98187000D01*
X146677000Y-100053720D01*
X146893070Y-100176220D01*
X146967277Y-100161260D01*
X147110000Y-100083588D01*
X147110000Y-108682009D01*
X147084609Y-108665043D01*
X146550000Y-108558703D01*
X146015391Y-108665043D01*
X145562172Y-108967875D01*
X145280000Y-109390174D01*
X144997828Y-108967875D01*
X144544609Y-108665043D01*
X144010000Y-108558703D01*
X143475391Y-108665043D01*
X143022172Y-108967875D01*
X142740000Y-109390174D01*
X142457828Y-108967875D01*
X142004609Y-108665043D01*
X141470000Y-108558703D01*
X140935391Y-108665043D01*
X140482172Y-108967875D01*
X140200000Y-109390174D01*
X139917828Y-108967875D01*
X139464609Y-108665043D01*
X138930000Y-108558703D01*
X138395391Y-108665043D01*
X138370000Y-108682009D01*
X138370000Y-100137991D01*
X138395391Y-100154957D01*
X138930000Y-100261297D01*
X139464609Y-100154957D01*
X139917828Y-99852125D01*
X140200000Y-99429826D01*
X140482172Y-99852125D01*
X140685000Y-99987651D01*
X140685000Y-105379042D01*
X139876508Y-106187534D01*
X139746629Y-106187421D01*
X139366085Y-106344658D01*
X139074681Y-106635554D01*
X138916780Y-107015823D01*
X138916421Y-107427571D01*
X139073658Y-107808115D01*
X139364554Y-108099519D01*
X139744823Y-108257420D01*
X140156571Y-108257779D01*
X140537115Y-108100542D01*
X140828519Y-107809646D01*
X140986420Y-107429377D01*
X140986535Y-107297823D01*
X142025079Y-106259279D01*
X142195245Y-106004606D01*
X142255000Y-105704200D01*
X142255000Y-99987651D01*
X142457828Y-99852125D01*
X142740000Y-99429826D01*
X143022172Y-99852125D01*
X143475391Y-100154957D01*
X144010000Y-100261297D01*
X144544609Y-100154957D01*
X144997828Y-99852125D01*
X145290349Y-99414338D01*
X145307941Y-99473941D01*
X145651974Y-99899630D01*
X146132723Y-100161260D01*
X146206930Y-100176220D01*
X146423000Y-100053720D01*
X146423000Y-98187000D01*
X146403000Y-98187000D01*
X146403000Y-97933000D01*
X146423000Y-97933000D01*
X146423000Y-97913000D01*
X146677000Y-97913000D01*
X146677000Y-97933000D01*
X146677000Y-97933000D01*
G37*
X146677000Y-97933000D02*
X146697000Y-97933000D01*
X146697000Y-98187000D01*
X146677000Y-98187000D01*
X146677000Y-100053720D01*
X146893070Y-100176220D01*
X146967277Y-100161260D01*
X147110000Y-100083588D01*
X147110000Y-108682009D01*
X147084609Y-108665043D01*
X146550000Y-108558703D01*
X146015391Y-108665043D01*
X145562172Y-108967875D01*
X145280000Y-109390174D01*
X144997828Y-108967875D01*
X144544609Y-108665043D01*
X144010000Y-108558703D01*
X143475391Y-108665043D01*
X143022172Y-108967875D01*
X142740000Y-109390174D01*
X142457828Y-108967875D01*
X142004609Y-108665043D01*
X141470000Y-108558703D01*
X140935391Y-108665043D01*
X140482172Y-108967875D01*
X140200000Y-109390174D01*
X139917828Y-108967875D01*
X139464609Y-108665043D01*
X138930000Y-108558703D01*
X138395391Y-108665043D01*
X138370000Y-108682009D01*
X138370000Y-100137991D01*
X138395391Y-100154957D01*
X138930000Y-100261297D01*
X139464609Y-100154957D01*
X139917828Y-99852125D01*
X140200000Y-99429826D01*
X140482172Y-99852125D01*
X140685000Y-99987651D01*
X140685000Y-105379042D01*
X139876508Y-106187534D01*
X139746629Y-106187421D01*
X139366085Y-106344658D01*
X139074681Y-106635554D01*
X138916780Y-107015823D01*
X138916421Y-107427571D01*
X139073658Y-107808115D01*
X139364554Y-108099519D01*
X139744823Y-108257420D01*
X140156571Y-108257779D01*
X140537115Y-108100542D01*
X140828519Y-107809646D01*
X140986420Y-107429377D01*
X140986535Y-107297823D01*
X142025079Y-106259279D01*
X142195245Y-106004606D01*
X142255000Y-105704200D01*
X142255000Y-99987651D01*
X142457828Y-99852125D01*
X142740000Y-99429826D01*
X143022172Y-99852125D01*
X143475391Y-100154957D01*
X144010000Y-100261297D01*
X144544609Y-100154957D01*
X144997828Y-99852125D01*
X145290349Y-99414338D01*
X145307941Y-99473941D01*
X145651974Y-99899630D01*
X146132723Y-100161260D01*
X146206930Y-100176220D01*
X146423000Y-100053720D01*
X146423000Y-98187000D01*
X146403000Y-98187000D01*
X146403000Y-97933000D01*
X146423000Y-97933000D01*
X146423000Y-97913000D01*
X146677000Y-97913000D01*
X146677000Y-97933000D01*
G36*
X157445000Y-98023000D02*
X157465000Y-98023000D01*
X157465000Y-98277000D01*
X157445000Y-98277000D01*
X157445000Y-100143720D01*
X157661070Y-100266220D01*
X157735277Y-100251260D01*
X157878000Y-100173588D01*
X157878000Y-108772009D01*
X157852609Y-108755043D01*
X157318000Y-108648703D01*
X156783391Y-108755043D01*
X156330172Y-109057875D01*
X156048000Y-109480174D01*
X155765828Y-109057875D01*
X155312609Y-108755043D01*
X154778000Y-108648703D01*
X154243391Y-108755043D01*
X153790172Y-109057875D01*
X153508000Y-109480174D01*
X153225828Y-109057875D01*
X152772609Y-108755043D01*
X152238000Y-108648703D01*
X151703391Y-108755043D01*
X151250172Y-109057875D01*
X150968000Y-109480174D01*
X150685828Y-109057875D01*
X150232609Y-108755043D01*
X149698000Y-108648703D01*
X149163391Y-108755043D01*
X149138000Y-108772009D01*
X149138000Y-100227991D01*
X149163391Y-100244957D01*
X149698000Y-100351297D01*
X150232609Y-100244957D01*
X150685828Y-99942125D01*
X150968000Y-99519826D01*
X151250172Y-99942125D01*
X151453000Y-100077651D01*
X151453000Y-105469042D01*
X150644508Y-106277534D01*
X150514629Y-106277421D01*
X150134085Y-106434658D01*
X149842681Y-106725554D01*
X149684780Y-107105823D01*
X149684421Y-107517571D01*
X149841658Y-107898115D01*
X150132554Y-108189519D01*
X150512823Y-108347420D01*
X150924571Y-108347779D01*
X151305115Y-108190542D01*
X151596519Y-107899646D01*
X151754420Y-107519377D01*
X151754535Y-107387823D01*
X152793079Y-106349279D01*
X152963245Y-106094606D01*
X153023000Y-105794200D01*
X153023000Y-100077651D01*
X153225828Y-99942125D01*
X153508000Y-99519826D01*
X153790172Y-99942125D01*
X154243391Y-100244957D01*
X154778000Y-100351297D01*
X155312609Y-100244957D01*
X155765828Y-99942125D01*
X156058349Y-99504338D01*
X156075941Y-99563941D01*
X156419974Y-99989630D01*
X156900723Y-100251260D01*
X156974930Y-100266220D01*
X157191000Y-100143720D01*
X157191000Y-98277000D01*
X157171000Y-98277000D01*
X157171000Y-98023000D01*
X157191000Y-98023000D01*
X157191000Y-98003000D01*
X157445000Y-98003000D01*
X157445000Y-98023000D01*
X157445000Y-98023000D01*
G37*
X157445000Y-98023000D02*
X157465000Y-98023000D01*
X157465000Y-98277000D01*
X157445000Y-98277000D01*
X157445000Y-100143720D01*
X157661070Y-100266220D01*
X157735277Y-100251260D01*
X157878000Y-100173588D01*
X157878000Y-108772009D01*
X157852609Y-108755043D01*
X157318000Y-108648703D01*
X156783391Y-108755043D01*
X156330172Y-109057875D01*
X156048000Y-109480174D01*
X155765828Y-109057875D01*
X155312609Y-108755043D01*
X154778000Y-108648703D01*
X154243391Y-108755043D01*
X153790172Y-109057875D01*
X153508000Y-109480174D01*
X153225828Y-109057875D01*
X152772609Y-108755043D01*
X152238000Y-108648703D01*
X151703391Y-108755043D01*
X151250172Y-109057875D01*
X150968000Y-109480174D01*
X150685828Y-109057875D01*
X150232609Y-108755043D01*
X149698000Y-108648703D01*
X149163391Y-108755043D01*
X149138000Y-108772009D01*
X149138000Y-100227991D01*
X149163391Y-100244957D01*
X149698000Y-100351297D01*
X150232609Y-100244957D01*
X150685828Y-99942125D01*
X150968000Y-99519826D01*
X151250172Y-99942125D01*
X151453000Y-100077651D01*
X151453000Y-105469042D01*
X150644508Y-106277534D01*
X150514629Y-106277421D01*
X150134085Y-106434658D01*
X149842681Y-106725554D01*
X149684780Y-107105823D01*
X149684421Y-107517571D01*
X149841658Y-107898115D01*
X150132554Y-108189519D01*
X150512823Y-108347420D01*
X150924571Y-108347779D01*
X151305115Y-108190542D01*
X151596519Y-107899646D01*
X151754420Y-107519377D01*
X151754535Y-107387823D01*
X152793079Y-106349279D01*
X152963245Y-106094606D01*
X153023000Y-105794200D01*
X153023000Y-100077651D01*
X153225828Y-99942125D01*
X153508000Y-99519826D01*
X153790172Y-99942125D01*
X154243391Y-100244957D01*
X154778000Y-100351297D01*
X155312609Y-100244957D01*
X155765828Y-99942125D01*
X156058349Y-99504338D01*
X156075941Y-99563941D01*
X156419974Y-99989630D01*
X156900723Y-100251260D01*
X156974930Y-100266220D01*
X157191000Y-100143720D01*
X157191000Y-98277000D01*
X157171000Y-98277000D01*
X157171000Y-98023000D01*
X157191000Y-98023000D01*
X157191000Y-98003000D01*
X157445000Y-98003000D01*
X157445000Y-98023000D01*
G36*
X168177000Y-97933000D02*
X168197000Y-97933000D01*
X168197000Y-98187000D01*
X168177000Y-98187000D01*
X168177000Y-100053720D01*
X168393070Y-100176220D01*
X168467277Y-100161260D01*
X168610000Y-100083588D01*
X168610000Y-108682009D01*
X168584609Y-108665043D01*
X168050000Y-108558703D01*
X167515391Y-108665043D01*
X167062172Y-108967875D01*
X166780000Y-109390174D01*
X166497828Y-108967875D01*
X166044609Y-108665043D01*
X165510000Y-108558703D01*
X164975391Y-108665043D01*
X164522172Y-108967875D01*
X164240000Y-109390174D01*
X163957828Y-108967875D01*
X163504609Y-108665043D01*
X162970000Y-108558703D01*
X162435391Y-108665043D01*
X161982172Y-108967875D01*
X161700000Y-109390174D01*
X161417828Y-108967875D01*
X160964609Y-108665043D01*
X160430000Y-108558703D01*
X159895391Y-108665043D01*
X159870000Y-108682009D01*
X159870000Y-100137991D01*
X159895391Y-100154957D01*
X160430000Y-100261297D01*
X160964609Y-100154957D01*
X161417828Y-99852125D01*
X161700000Y-99429826D01*
X161982172Y-99852125D01*
X162185000Y-99987651D01*
X162185000Y-105379042D01*
X161376508Y-106187534D01*
X161246629Y-106187421D01*
X160866085Y-106344658D01*
X160574681Y-106635554D01*
X160416780Y-107015823D01*
X160416421Y-107427571D01*
X160573658Y-107808115D01*
X160864554Y-108099519D01*
X161244823Y-108257420D01*
X161656571Y-108257779D01*
X162037115Y-108100542D01*
X162328519Y-107809646D01*
X162486420Y-107429377D01*
X162486535Y-107297823D01*
X163525079Y-106259279D01*
X163695245Y-106004606D01*
X163755000Y-105704200D01*
X163755000Y-99987651D01*
X163957828Y-99852125D01*
X164240000Y-99429826D01*
X164522172Y-99852125D01*
X164975391Y-100154957D01*
X165510000Y-100261297D01*
X166044609Y-100154957D01*
X166497828Y-99852125D01*
X166790349Y-99414338D01*
X166807941Y-99473941D01*
X167151974Y-99899630D01*
X167632723Y-100161260D01*
X167706930Y-100176220D01*
X167923000Y-100053720D01*
X167923000Y-98187000D01*
X167903000Y-98187000D01*
X167903000Y-97933000D01*
X167923000Y-97933000D01*
X167923000Y-97913000D01*
X168177000Y-97913000D01*
X168177000Y-97933000D01*
X168177000Y-97933000D01*
G37*
X168177000Y-97933000D02*
X168197000Y-97933000D01*
X168197000Y-98187000D01*
X168177000Y-98187000D01*
X168177000Y-100053720D01*
X168393070Y-100176220D01*
X168467277Y-100161260D01*
X168610000Y-100083588D01*
X168610000Y-108682009D01*
X168584609Y-108665043D01*
X168050000Y-108558703D01*
X167515391Y-108665043D01*
X167062172Y-108967875D01*
X166780000Y-109390174D01*
X166497828Y-108967875D01*
X166044609Y-108665043D01*
X165510000Y-108558703D01*
X164975391Y-108665043D01*
X164522172Y-108967875D01*
X164240000Y-109390174D01*
X163957828Y-108967875D01*
X163504609Y-108665043D01*
X162970000Y-108558703D01*
X162435391Y-108665043D01*
X161982172Y-108967875D01*
X161700000Y-109390174D01*
X161417828Y-108967875D01*
X160964609Y-108665043D01*
X160430000Y-108558703D01*
X159895391Y-108665043D01*
X159870000Y-108682009D01*
X159870000Y-100137991D01*
X159895391Y-100154957D01*
X160430000Y-100261297D01*
X160964609Y-100154957D01*
X161417828Y-99852125D01*
X161700000Y-99429826D01*
X161982172Y-99852125D01*
X162185000Y-99987651D01*
X162185000Y-105379042D01*
X161376508Y-106187534D01*
X161246629Y-106187421D01*
X160866085Y-106344658D01*
X160574681Y-106635554D01*
X160416780Y-107015823D01*
X160416421Y-107427571D01*
X160573658Y-107808115D01*
X160864554Y-108099519D01*
X161244823Y-108257420D01*
X161656571Y-108257779D01*
X162037115Y-108100542D01*
X162328519Y-107809646D01*
X162486420Y-107429377D01*
X162486535Y-107297823D01*
X163525079Y-106259279D01*
X163695245Y-106004606D01*
X163755000Y-105704200D01*
X163755000Y-99987651D01*
X163957828Y-99852125D01*
X164240000Y-99429826D01*
X164522172Y-99852125D01*
X164975391Y-100154957D01*
X165510000Y-100261297D01*
X166044609Y-100154957D01*
X166497828Y-99852125D01*
X166790349Y-99414338D01*
X166807941Y-99473941D01*
X167151974Y-99899630D01*
X167632723Y-100161260D01*
X167706930Y-100176220D01*
X167923000Y-100053720D01*
X167923000Y-98187000D01*
X167903000Y-98187000D01*
X167903000Y-97933000D01*
X167923000Y-97933000D01*
X167923000Y-97913000D01*
X168177000Y-97913000D01*
X168177000Y-97933000D01*
G36*
X178945000Y-98023000D02*
X178965000Y-98023000D01*
X178965000Y-98277000D01*
X178945000Y-98277000D01*
X178945000Y-100143720D01*
X179161070Y-100266220D01*
X179235277Y-100251260D01*
X179378000Y-100173588D01*
X179378000Y-108772009D01*
X179352609Y-108755043D01*
X178818000Y-108648703D01*
X178283391Y-108755043D01*
X177830172Y-109057875D01*
X177548000Y-109480174D01*
X177265828Y-109057875D01*
X176812609Y-108755043D01*
X176278000Y-108648703D01*
X175743391Y-108755043D01*
X175290172Y-109057875D01*
X175008000Y-109480174D01*
X174725828Y-109057875D01*
X174272609Y-108755043D01*
X173738000Y-108648703D01*
X173203391Y-108755043D01*
X172750172Y-109057875D01*
X172468000Y-109480174D01*
X172185828Y-109057875D01*
X171732609Y-108755043D01*
X171198000Y-108648703D01*
X170663391Y-108755043D01*
X170638000Y-108772009D01*
X170638000Y-100227991D01*
X170663391Y-100244957D01*
X171198000Y-100351297D01*
X171732609Y-100244957D01*
X172185828Y-99942125D01*
X172468000Y-99519826D01*
X172750172Y-99942125D01*
X172953000Y-100077651D01*
X172953000Y-105469042D01*
X172144508Y-106277534D01*
X172014629Y-106277421D01*
X171634085Y-106434658D01*
X171342681Y-106725554D01*
X171184780Y-107105823D01*
X171184421Y-107517571D01*
X171341658Y-107898115D01*
X171632554Y-108189519D01*
X172012823Y-108347420D01*
X172424571Y-108347779D01*
X172805115Y-108190542D01*
X173096519Y-107899646D01*
X173254420Y-107519377D01*
X173254535Y-107387823D01*
X174293079Y-106349279D01*
X174463245Y-106094606D01*
X174523000Y-105794200D01*
X174523000Y-100077651D01*
X174725828Y-99942125D01*
X175008000Y-99519826D01*
X175290172Y-99942125D01*
X175743391Y-100244957D01*
X176278000Y-100351297D01*
X176812609Y-100244957D01*
X177265828Y-99942125D01*
X177558349Y-99504338D01*
X177575941Y-99563941D01*
X177919974Y-99989630D01*
X178400723Y-100251260D01*
X178474930Y-100266220D01*
X178691000Y-100143720D01*
X178691000Y-98277000D01*
X178671000Y-98277000D01*
X178671000Y-98023000D01*
X178691000Y-98023000D01*
X178691000Y-98003000D01*
X178945000Y-98003000D01*
X178945000Y-98023000D01*
X178945000Y-98023000D01*
G37*
X178945000Y-98023000D02*
X178965000Y-98023000D01*
X178965000Y-98277000D01*
X178945000Y-98277000D01*
X178945000Y-100143720D01*
X179161070Y-100266220D01*
X179235277Y-100251260D01*
X179378000Y-100173588D01*
X179378000Y-108772009D01*
X179352609Y-108755043D01*
X178818000Y-108648703D01*
X178283391Y-108755043D01*
X177830172Y-109057875D01*
X177548000Y-109480174D01*
X177265828Y-109057875D01*
X176812609Y-108755043D01*
X176278000Y-108648703D01*
X175743391Y-108755043D01*
X175290172Y-109057875D01*
X175008000Y-109480174D01*
X174725828Y-109057875D01*
X174272609Y-108755043D01*
X173738000Y-108648703D01*
X173203391Y-108755043D01*
X172750172Y-109057875D01*
X172468000Y-109480174D01*
X172185828Y-109057875D01*
X171732609Y-108755043D01*
X171198000Y-108648703D01*
X170663391Y-108755043D01*
X170638000Y-108772009D01*
X170638000Y-100227991D01*
X170663391Y-100244957D01*
X171198000Y-100351297D01*
X171732609Y-100244957D01*
X172185828Y-99942125D01*
X172468000Y-99519826D01*
X172750172Y-99942125D01*
X172953000Y-100077651D01*
X172953000Y-105469042D01*
X172144508Y-106277534D01*
X172014629Y-106277421D01*
X171634085Y-106434658D01*
X171342681Y-106725554D01*
X171184780Y-107105823D01*
X171184421Y-107517571D01*
X171341658Y-107898115D01*
X171632554Y-108189519D01*
X172012823Y-108347420D01*
X172424571Y-108347779D01*
X172805115Y-108190542D01*
X173096519Y-107899646D01*
X173254420Y-107519377D01*
X173254535Y-107387823D01*
X174293079Y-106349279D01*
X174463245Y-106094606D01*
X174523000Y-105794200D01*
X174523000Y-100077651D01*
X174725828Y-99942125D01*
X175008000Y-99519826D01*
X175290172Y-99942125D01*
X175743391Y-100244957D01*
X176278000Y-100351297D01*
X176812609Y-100244957D01*
X177265828Y-99942125D01*
X177558349Y-99504338D01*
X177575941Y-99563941D01*
X177919974Y-99989630D01*
X178400723Y-100251260D01*
X178474930Y-100266220D01*
X178691000Y-100143720D01*
X178691000Y-98277000D01*
X178671000Y-98277000D01*
X178671000Y-98023000D01*
X178691000Y-98023000D01*
X178691000Y-98003000D01*
X178945000Y-98003000D01*
X178945000Y-98023000D01*
G36*
X146677000Y-116433000D02*
X146697000Y-116433000D01*
X146697000Y-116687000D01*
X146677000Y-116687000D01*
X146677000Y-118553720D01*
X146893070Y-118676220D01*
X146967277Y-118661260D01*
X147110000Y-118583588D01*
X147110000Y-127182009D01*
X147084609Y-127165043D01*
X146550000Y-127058703D01*
X146015391Y-127165043D01*
X145562172Y-127467875D01*
X145280000Y-127890174D01*
X144997828Y-127467875D01*
X144544609Y-127165043D01*
X144010000Y-127058703D01*
X143475391Y-127165043D01*
X143022172Y-127467875D01*
X142740000Y-127890174D01*
X142457828Y-127467875D01*
X142004609Y-127165043D01*
X141470000Y-127058703D01*
X140935391Y-127165043D01*
X140482172Y-127467875D01*
X140200000Y-127890174D01*
X139917828Y-127467875D01*
X139464609Y-127165043D01*
X138930000Y-127058703D01*
X138395391Y-127165043D01*
X138370000Y-127182009D01*
X138370000Y-118637991D01*
X138395391Y-118654957D01*
X138930000Y-118761297D01*
X139464609Y-118654957D01*
X139917828Y-118352125D01*
X140200000Y-117929826D01*
X140482172Y-118352125D01*
X140685000Y-118487651D01*
X140685000Y-123879042D01*
X139876508Y-124687534D01*
X139746629Y-124687421D01*
X139366085Y-124844658D01*
X139074681Y-125135554D01*
X138916780Y-125515823D01*
X138916421Y-125927571D01*
X139073658Y-126308115D01*
X139364554Y-126599519D01*
X139744823Y-126757420D01*
X140156571Y-126757779D01*
X140537115Y-126600542D01*
X140828519Y-126309646D01*
X140986420Y-125929377D01*
X140986535Y-125797823D01*
X142025079Y-124759279D01*
X142195245Y-124504606D01*
X142255000Y-124204200D01*
X142255000Y-118487651D01*
X142457828Y-118352125D01*
X142740000Y-117929826D01*
X143022172Y-118352125D01*
X143475391Y-118654957D01*
X144010000Y-118761297D01*
X144544609Y-118654957D01*
X144997828Y-118352125D01*
X145290349Y-117914338D01*
X145307941Y-117973941D01*
X145651974Y-118399630D01*
X146132723Y-118661260D01*
X146206930Y-118676220D01*
X146423000Y-118553720D01*
X146423000Y-116687000D01*
X146403000Y-116687000D01*
X146403000Y-116433000D01*
X146423000Y-116433000D01*
X146423000Y-116413000D01*
X146677000Y-116413000D01*
X146677000Y-116433000D01*
X146677000Y-116433000D01*
G37*
X146677000Y-116433000D02*
X146697000Y-116433000D01*
X146697000Y-116687000D01*
X146677000Y-116687000D01*
X146677000Y-118553720D01*
X146893070Y-118676220D01*
X146967277Y-118661260D01*
X147110000Y-118583588D01*
X147110000Y-127182009D01*
X147084609Y-127165043D01*
X146550000Y-127058703D01*
X146015391Y-127165043D01*
X145562172Y-127467875D01*
X145280000Y-127890174D01*
X144997828Y-127467875D01*
X144544609Y-127165043D01*
X144010000Y-127058703D01*
X143475391Y-127165043D01*
X143022172Y-127467875D01*
X142740000Y-127890174D01*
X142457828Y-127467875D01*
X142004609Y-127165043D01*
X141470000Y-127058703D01*
X140935391Y-127165043D01*
X140482172Y-127467875D01*
X140200000Y-127890174D01*
X139917828Y-127467875D01*
X139464609Y-127165043D01*
X138930000Y-127058703D01*
X138395391Y-127165043D01*
X138370000Y-127182009D01*
X138370000Y-118637991D01*
X138395391Y-118654957D01*
X138930000Y-118761297D01*
X139464609Y-118654957D01*
X139917828Y-118352125D01*
X140200000Y-117929826D01*
X140482172Y-118352125D01*
X140685000Y-118487651D01*
X140685000Y-123879042D01*
X139876508Y-124687534D01*
X139746629Y-124687421D01*
X139366085Y-124844658D01*
X139074681Y-125135554D01*
X138916780Y-125515823D01*
X138916421Y-125927571D01*
X139073658Y-126308115D01*
X139364554Y-126599519D01*
X139744823Y-126757420D01*
X140156571Y-126757779D01*
X140537115Y-126600542D01*
X140828519Y-126309646D01*
X140986420Y-125929377D01*
X140986535Y-125797823D01*
X142025079Y-124759279D01*
X142195245Y-124504606D01*
X142255000Y-124204200D01*
X142255000Y-118487651D01*
X142457828Y-118352125D01*
X142740000Y-117929826D01*
X143022172Y-118352125D01*
X143475391Y-118654957D01*
X144010000Y-118761297D01*
X144544609Y-118654957D01*
X144997828Y-118352125D01*
X145290349Y-117914338D01*
X145307941Y-117973941D01*
X145651974Y-118399630D01*
X146132723Y-118661260D01*
X146206930Y-118676220D01*
X146423000Y-118553720D01*
X146423000Y-116687000D01*
X146403000Y-116687000D01*
X146403000Y-116433000D01*
X146423000Y-116433000D01*
X146423000Y-116413000D01*
X146677000Y-116413000D01*
X146677000Y-116433000D01*
G36*
X157445000Y-116523000D02*
X157465000Y-116523000D01*
X157465000Y-116777000D01*
X157445000Y-116777000D01*
X157445000Y-118643720D01*
X157661070Y-118766220D01*
X157735277Y-118751260D01*
X157878000Y-118673588D01*
X157878000Y-127272009D01*
X157852609Y-127255043D01*
X157318000Y-127148703D01*
X156783391Y-127255043D01*
X156330172Y-127557875D01*
X156048000Y-127980174D01*
X155765828Y-127557875D01*
X155312609Y-127255043D01*
X154778000Y-127148703D01*
X154243391Y-127255043D01*
X153790172Y-127557875D01*
X153508000Y-127980174D01*
X153225828Y-127557875D01*
X152772609Y-127255043D01*
X152238000Y-127148703D01*
X151703391Y-127255043D01*
X151250172Y-127557875D01*
X150968000Y-127980174D01*
X150685828Y-127557875D01*
X150232609Y-127255043D01*
X149698000Y-127148703D01*
X149163391Y-127255043D01*
X149138000Y-127272009D01*
X149138000Y-118727991D01*
X149163391Y-118744957D01*
X149698000Y-118851297D01*
X150232609Y-118744957D01*
X150685828Y-118442125D01*
X150968000Y-118019826D01*
X151250172Y-118442125D01*
X151453000Y-118577651D01*
X151453000Y-123969042D01*
X150644508Y-124777534D01*
X150514629Y-124777421D01*
X150134085Y-124934658D01*
X149842681Y-125225554D01*
X149684780Y-125605823D01*
X149684421Y-126017571D01*
X149841658Y-126398115D01*
X150132554Y-126689519D01*
X150512823Y-126847420D01*
X150924571Y-126847779D01*
X151305115Y-126690542D01*
X151596519Y-126399646D01*
X151754420Y-126019377D01*
X151754535Y-125887823D01*
X152793079Y-124849279D01*
X152963245Y-124594606D01*
X153023000Y-124294200D01*
X153023000Y-118577651D01*
X153225828Y-118442125D01*
X153508000Y-118019826D01*
X153790172Y-118442125D01*
X154243391Y-118744957D01*
X154778000Y-118851297D01*
X155312609Y-118744957D01*
X155765828Y-118442125D01*
X156058349Y-118004338D01*
X156075941Y-118063941D01*
X156419974Y-118489630D01*
X156900723Y-118751260D01*
X156974930Y-118766220D01*
X157191000Y-118643720D01*
X157191000Y-116777000D01*
X157171000Y-116777000D01*
X157171000Y-116523000D01*
X157191000Y-116523000D01*
X157191000Y-116503000D01*
X157445000Y-116503000D01*
X157445000Y-116523000D01*
X157445000Y-116523000D01*
G37*
X157445000Y-116523000D02*
X157465000Y-116523000D01*
X157465000Y-116777000D01*
X157445000Y-116777000D01*
X157445000Y-118643720D01*
X157661070Y-118766220D01*
X157735277Y-118751260D01*
X157878000Y-118673588D01*
X157878000Y-127272009D01*
X157852609Y-127255043D01*
X157318000Y-127148703D01*
X156783391Y-127255043D01*
X156330172Y-127557875D01*
X156048000Y-127980174D01*
X155765828Y-127557875D01*
X155312609Y-127255043D01*
X154778000Y-127148703D01*
X154243391Y-127255043D01*
X153790172Y-127557875D01*
X153508000Y-127980174D01*
X153225828Y-127557875D01*
X152772609Y-127255043D01*
X152238000Y-127148703D01*
X151703391Y-127255043D01*
X151250172Y-127557875D01*
X150968000Y-127980174D01*
X150685828Y-127557875D01*
X150232609Y-127255043D01*
X149698000Y-127148703D01*
X149163391Y-127255043D01*
X149138000Y-127272009D01*
X149138000Y-118727991D01*
X149163391Y-118744957D01*
X149698000Y-118851297D01*
X150232609Y-118744957D01*
X150685828Y-118442125D01*
X150968000Y-118019826D01*
X151250172Y-118442125D01*
X151453000Y-118577651D01*
X151453000Y-123969042D01*
X150644508Y-124777534D01*
X150514629Y-124777421D01*
X150134085Y-124934658D01*
X149842681Y-125225554D01*
X149684780Y-125605823D01*
X149684421Y-126017571D01*
X149841658Y-126398115D01*
X150132554Y-126689519D01*
X150512823Y-126847420D01*
X150924571Y-126847779D01*
X151305115Y-126690542D01*
X151596519Y-126399646D01*
X151754420Y-126019377D01*
X151754535Y-125887823D01*
X152793079Y-124849279D01*
X152963245Y-124594606D01*
X153023000Y-124294200D01*
X153023000Y-118577651D01*
X153225828Y-118442125D01*
X153508000Y-118019826D01*
X153790172Y-118442125D01*
X154243391Y-118744957D01*
X154778000Y-118851297D01*
X155312609Y-118744957D01*
X155765828Y-118442125D01*
X156058349Y-118004338D01*
X156075941Y-118063941D01*
X156419974Y-118489630D01*
X156900723Y-118751260D01*
X156974930Y-118766220D01*
X157191000Y-118643720D01*
X157191000Y-116777000D01*
X157171000Y-116777000D01*
X157171000Y-116523000D01*
X157191000Y-116523000D01*
X157191000Y-116503000D01*
X157445000Y-116503000D01*
X157445000Y-116523000D01*
G36*
X168177000Y-116433000D02*
X168197000Y-116433000D01*
X168197000Y-116687000D01*
X168177000Y-116687000D01*
X168177000Y-118553720D01*
X168393070Y-118676220D01*
X168467277Y-118661260D01*
X168610000Y-118583588D01*
X168610000Y-127182009D01*
X168584609Y-127165043D01*
X168050000Y-127058703D01*
X167515391Y-127165043D01*
X167062172Y-127467875D01*
X166780000Y-127890174D01*
X166497828Y-127467875D01*
X166044609Y-127165043D01*
X165510000Y-127058703D01*
X164975391Y-127165043D01*
X164522172Y-127467875D01*
X164240000Y-127890174D01*
X163957828Y-127467875D01*
X163504609Y-127165043D01*
X162970000Y-127058703D01*
X162435391Y-127165043D01*
X161982172Y-127467875D01*
X161700000Y-127890174D01*
X161417828Y-127467875D01*
X160964609Y-127165043D01*
X160430000Y-127058703D01*
X159895391Y-127165043D01*
X159870000Y-127182009D01*
X159870000Y-118637991D01*
X159895391Y-118654957D01*
X160430000Y-118761297D01*
X160964609Y-118654957D01*
X161417828Y-118352125D01*
X161700000Y-117929826D01*
X161982172Y-118352125D01*
X162185000Y-118487651D01*
X162185000Y-123879042D01*
X161376508Y-124687534D01*
X161246629Y-124687421D01*
X160866085Y-124844658D01*
X160574681Y-125135554D01*
X160416780Y-125515823D01*
X160416421Y-125927571D01*
X160573658Y-126308115D01*
X160864554Y-126599519D01*
X161244823Y-126757420D01*
X161656571Y-126757779D01*
X162037115Y-126600542D01*
X162328519Y-126309646D01*
X162486420Y-125929377D01*
X162486535Y-125797823D01*
X163525079Y-124759279D01*
X163695245Y-124504606D01*
X163755000Y-124204200D01*
X163755000Y-118487651D01*
X163957828Y-118352125D01*
X164240000Y-117929826D01*
X164522172Y-118352125D01*
X164975391Y-118654957D01*
X165510000Y-118761297D01*
X166044609Y-118654957D01*
X166497828Y-118352125D01*
X166790349Y-117914338D01*
X166807941Y-117973941D01*
X167151974Y-118399630D01*
X167632723Y-118661260D01*
X167706930Y-118676220D01*
X167923000Y-118553720D01*
X167923000Y-116687000D01*
X167903000Y-116687000D01*
X167903000Y-116433000D01*
X167923000Y-116433000D01*
X167923000Y-116413000D01*
X168177000Y-116413000D01*
X168177000Y-116433000D01*
X168177000Y-116433000D01*
G37*
X168177000Y-116433000D02*
X168197000Y-116433000D01*
X168197000Y-116687000D01*
X168177000Y-116687000D01*
X168177000Y-118553720D01*
X168393070Y-118676220D01*
X168467277Y-118661260D01*
X168610000Y-118583588D01*
X168610000Y-127182009D01*
X168584609Y-127165043D01*
X168050000Y-127058703D01*
X167515391Y-127165043D01*
X167062172Y-127467875D01*
X166780000Y-127890174D01*
X166497828Y-127467875D01*
X166044609Y-127165043D01*
X165510000Y-127058703D01*
X164975391Y-127165043D01*
X164522172Y-127467875D01*
X164240000Y-127890174D01*
X163957828Y-127467875D01*
X163504609Y-127165043D01*
X162970000Y-127058703D01*
X162435391Y-127165043D01*
X161982172Y-127467875D01*
X161700000Y-127890174D01*
X161417828Y-127467875D01*
X160964609Y-127165043D01*
X160430000Y-127058703D01*
X159895391Y-127165043D01*
X159870000Y-127182009D01*
X159870000Y-118637991D01*
X159895391Y-118654957D01*
X160430000Y-118761297D01*
X160964609Y-118654957D01*
X161417828Y-118352125D01*
X161700000Y-117929826D01*
X161982172Y-118352125D01*
X162185000Y-118487651D01*
X162185000Y-123879042D01*
X161376508Y-124687534D01*
X161246629Y-124687421D01*
X160866085Y-124844658D01*
X160574681Y-125135554D01*
X160416780Y-125515823D01*
X160416421Y-125927571D01*
X160573658Y-126308115D01*
X160864554Y-126599519D01*
X161244823Y-126757420D01*
X161656571Y-126757779D01*
X162037115Y-126600542D01*
X162328519Y-126309646D01*
X162486420Y-125929377D01*
X162486535Y-125797823D01*
X163525079Y-124759279D01*
X163695245Y-124504606D01*
X163755000Y-124204200D01*
X163755000Y-118487651D01*
X163957828Y-118352125D01*
X164240000Y-117929826D01*
X164522172Y-118352125D01*
X164975391Y-118654957D01*
X165510000Y-118761297D01*
X166044609Y-118654957D01*
X166497828Y-118352125D01*
X166790349Y-117914338D01*
X166807941Y-117973941D01*
X167151974Y-118399630D01*
X167632723Y-118661260D01*
X167706930Y-118676220D01*
X167923000Y-118553720D01*
X167923000Y-116687000D01*
X167903000Y-116687000D01*
X167903000Y-116433000D01*
X167923000Y-116433000D01*
X167923000Y-116413000D01*
X168177000Y-116413000D01*
X168177000Y-116433000D01*
G36*
X178945000Y-116523000D02*
X178965000Y-116523000D01*
X178965000Y-116777000D01*
X178945000Y-116777000D01*
X178945000Y-118643720D01*
X179161070Y-118766220D01*
X179235277Y-118751260D01*
X179378000Y-118673588D01*
X179378000Y-127272009D01*
X179352609Y-127255043D01*
X178818000Y-127148703D01*
X178283391Y-127255043D01*
X177830172Y-127557875D01*
X177548000Y-127980174D01*
X177265828Y-127557875D01*
X176812609Y-127255043D01*
X176278000Y-127148703D01*
X175743391Y-127255043D01*
X175290172Y-127557875D01*
X175008000Y-127980174D01*
X174725828Y-127557875D01*
X174272609Y-127255043D01*
X173738000Y-127148703D01*
X173203391Y-127255043D01*
X172750172Y-127557875D01*
X172468000Y-127980174D01*
X172185828Y-127557875D01*
X171732609Y-127255043D01*
X171198000Y-127148703D01*
X170663391Y-127255043D01*
X170638000Y-127272009D01*
X170638000Y-118727991D01*
X170663391Y-118744957D01*
X171198000Y-118851297D01*
X171732609Y-118744957D01*
X172185828Y-118442125D01*
X172468000Y-118019826D01*
X172750172Y-118442125D01*
X172953000Y-118577651D01*
X172953000Y-123969042D01*
X172144508Y-124777534D01*
X172014629Y-124777421D01*
X171634085Y-124934658D01*
X171342681Y-125225554D01*
X171184780Y-125605823D01*
X171184421Y-126017571D01*
X171341658Y-126398115D01*
X171632554Y-126689519D01*
X172012823Y-126847420D01*
X172424571Y-126847779D01*
X172805115Y-126690542D01*
X173096519Y-126399646D01*
X173254420Y-126019377D01*
X173254535Y-125887823D01*
X174293079Y-124849279D01*
X174463245Y-124594606D01*
X174523000Y-124294200D01*
X174523000Y-118577651D01*
X174725828Y-118442125D01*
X175008000Y-118019826D01*
X175290172Y-118442125D01*
X175743391Y-118744957D01*
X176278000Y-118851297D01*
X176812609Y-118744957D01*
X177265828Y-118442125D01*
X177558349Y-118004338D01*
X177575941Y-118063941D01*
X177919974Y-118489630D01*
X178400723Y-118751260D01*
X178474930Y-118766220D01*
X178691000Y-118643720D01*
X178691000Y-116777000D01*
X178671000Y-116777000D01*
X178671000Y-116523000D01*
X178691000Y-116523000D01*
X178691000Y-116503000D01*
X178945000Y-116503000D01*
X178945000Y-116523000D01*
X178945000Y-116523000D01*
G37*
X178945000Y-116523000D02*
X178965000Y-116523000D01*
X178965000Y-116777000D01*
X178945000Y-116777000D01*
X178945000Y-118643720D01*
X179161070Y-118766220D01*
X179235277Y-118751260D01*
X179378000Y-118673588D01*
X179378000Y-127272009D01*
X179352609Y-127255043D01*
X178818000Y-127148703D01*
X178283391Y-127255043D01*
X177830172Y-127557875D01*
X177548000Y-127980174D01*
X177265828Y-127557875D01*
X176812609Y-127255043D01*
X176278000Y-127148703D01*
X175743391Y-127255043D01*
X175290172Y-127557875D01*
X175008000Y-127980174D01*
X174725828Y-127557875D01*
X174272609Y-127255043D01*
X173738000Y-127148703D01*
X173203391Y-127255043D01*
X172750172Y-127557875D01*
X172468000Y-127980174D01*
X172185828Y-127557875D01*
X171732609Y-127255043D01*
X171198000Y-127148703D01*
X170663391Y-127255043D01*
X170638000Y-127272009D01*
X170638000Y-118727991D01*
X170663391Y-118744957D01*
X171198000Y-118851297D01*
X171732609Y-118744957D01*
X172185828Y-118442125D01*
X172468000Y-118019826D01*
X172750172Y-118442125D01*
X172953000Y-118577651D01*
X172953000Y-123969042D01*
X172144508Y-124777534D01*
X172014629Y-124777421D01*
X171634085Y-124934658D01*
X171342681Y-125225554D01*
X171184780Y-125605823D01*
X171184421Y-126017571D01*
X171341658Y-126398115D01*
X171632554Y-126689519D01*
X172012823Y-126847420D01*
X172424571Y-126847779D01*
X172805115Y-126690542D01*
X173096519Y-126399646D01*
X173254420Y-126019377D01*
X173254535Y-125887823D01*
X174293079Y-124849279D01*
X174463245Y-124594606D01*
X174523000Y-124294200D01*
X174523000Y-118577651D01*
X174725828Y-118442125D01*
X175008000Y-118019826D01*
X175290172Y-118442125D01*
X175743391Y-118744957D01*
X176278000Y-118851297D01*
X176812609Y-118744957D01*
X177265828Y-118442125D01*
X177558349Y-118004338D01*
X177575941Y-118063941D01*
X177919974Y-118489630D01*
X178400723Y-118751260D01*
X178474930Y-118766220D01*
X178691000Y-118643720D01*
X178691000Y-116777000D01*
X178671000Y-116777000D01*
X178671000Y-116523000D01*
X178691000Y-116523000D01*
X178691000Y-116503000D01*
X178945000Y-116503000D01*
X178945000Y-116523000D01*
M02*
